<svg xmlns="http://www.w3.org/2000/svg" version="1.1" xmlns:xlink="http://www.w3.org/1999/xlink" xmlns:svgjs="http://svgjs.com/svgjs" width="1440" height="560" preserveAspectRatio="none" viewBox="0 0 1440 560"><g mask="url(&quot;#SvgjsMask1065&quot;)" fill="none"><rect width="1440" height="560" x="0" y="0" fill="rgba(45, 45, 45, 1)"></rect><path d="M0,392.072C72.047,395.304,125.116,326.483,179.047,278.602C225.836,237.062,256.128,184.706,291.614,133.175C335.368,69.638,423.397,17.059,411.658,-59.188C399.89,-135.623,290.135,-149.075,239.2,-207.268C188.655,-265.016,191.002,-378.398,116.422,-396.496C40.736,-414.863,-11.378,-314.117,-83.88,-285.669C-147.142,-260.847,-230.321,-289.225,-278.674,-241.473C-327.148,-193.6,-311.574,-113.476,-325.72,-46.832C-341.071,25.494,-398.713,100.869,-365.341,166.846C-331.772,233.214,-232.323,223.958,-169.012,262.988C-107.42,300.958,-72.282,388.829,0,392.072" fill="#242424"></path><path d="M1440 983.273C1533.264 996.178 1638.1779999999999 1042.503 1716.646 990.469 1795.202 938.377 1781.577 819.563 1817.99 732.6220000000001 1852.896 649.279 1938.4180000000001 579.622 1926.214 490.093 1914.008 400.543 1826.395 343.225 1757.017 285.304 1696.612 234.875 1622.253 213.70800000000003 1552.208 177.853 1463.015 132.197 1387.038 25.051000000000045 1288.997 45.73299999999995 1192.467 66.096 1161.4479999999999 189.247 1107.2939999999999 271.709 1060.3519999999999 343.18899999999996 1005.777 411.173 993.437 495.794 981.0830000000001 580.508 999.81 666.991 1038.5149999999999 743.352 1076.246 817.7909999999999 1136.8980000000001 877.354 1208.536 920.164 1278.603 962.0350000000001 1359.146 972.086 1440 983.273" fill="#363636"></path></g><defs><mask id="SvgjsMask1065"><rect width="1440" height="560" fill="#ffffff"></rect></mask></defs></svg>